<?xml version="1.0" encoding="UTF-8"?>
<!DOCTYPE svg PUBLIC "-//W3C//DTD SVG 1.1//EN" "http://www.w3.org/Graphics/SVG/1.1/DTD/svg11.dtd">
<svg xmlns="http://www.w3.org/2000/svg" version="1.1" width="291px" height="17px" style="shape-rendering:geometricPrecision; text-rendering:geometricPrecision; image-rendering:optimizeQuality; fill-rule:evenodd; clip-rule:evenodd" xmlns:xlink="http://www.w3.org/1999/xlink">
<g><path style="opacity:0.753" fill="#5089fc" d="M 290.5,4.5 C 290.5,6.5 290.5,8.5 290.5,10.5C 280.673,12.9089 270.673,13.9089 260.5,13.5C 188.969,11.12 117.636,12.12 46.5,16.5C 39.5,16.5 32.5,16.5 25.5,16.5C 23.9829,14.0642 24.3162,11.8976 26.5,10C 41.4987,9.3044 56.4987,8.63774 71.5,8C 48.1595,7.83313 24.8262,7.33313 1.5,6.5C 0.166667,4.83333 0.166667,3.16667 1.5,1.5C 80.1684,0.298575 158.835,0.465241 237.5,2C 255.229,2.17739 272.896,3.01073 290.5,4.5 Z"/></g>
</svg>
