<?xml version="1.0" encoding="UTF-8"?>
<!DOCTYPE svg PUBLIC "-//W3C//DTD SVG 1.1//EN" "http://www.w3.org/Graphics/SVG/1.1/DTD/svg11.dtd">
<svg xmlns="http://www.w3.org/2000/svg" version="1.1" width="544px" height="28px" style="shape-rendering:geometricPrecision; text-rendering:geometricPrecision; image-rendering:optimizeQuality; fill-rule:evenodd; clip-rule:evenodd" xmlns:xlink="http://www.w3.org/1999/xlink">
<g><path style="opacity:0.973" fill="#f7cd1b" d="M 147.5,-0.5 C 147.833,-0.5 148.167,-0.5 148.5,-0.5C 150.167,0.833333 151.833,0.833333 153.5,-0.5C 154.5,-0.5 155.5,-0.5 156.5,-0.5C 156.833,0.833333 157.167,0.833333 157.5,-0.5C 157.833,-0.5 158.167,-0.5 158.5,-0.5C 159.5,0.833333 160.5,0.833333 161.5,-0.5C 162.5,-0.5 163.5,-0.5 164.5,-0.5C 164.833,0.833333 165.167,0.833333 165.5,-0.5C 166.167,-0.5 166.833,-0.5 167.5,-0.5C 168.5,0.833333 169.5,0.833333 170.5,-0.5C 203.167,-0.5 235.833,-0.5 268.5,-0.5C 269.167,0.833333 269.833,0.833333 270.5,-0.5C 271.833,-0.5 273.167,-0.5 274.5,-0.5C 275.167,0.833333 275.833,0.833333 276.5,-0.5C 279.833,-0.5 283.167,-0.5 286.5,-0.5C 287.167,0.833333 287.833,0.833333 288.5,-0.5C 289.5,-0.5 290.5,-0.5 291.5,-0.5C 292.833,0.833333 294.167,0.833333 295.5,-0.5C 296.833,-0.5 298.167,-0.5 299.5,-0.5C 326.179,0.224111 352.679,1.22411 379,2.5C 381.044,1.99406 383.044,1.66073 385,1.5C 437.568,3.94092 490.401,7.27425 543.5,11.5C 543.5,13.1667 543.5,14.8333 543.5,16.5C 538.724,16.5826 533.891,16.9159 529,17.5C 527.188,17.5066 525.688,16.84 524.5,15.5C 517.691,16.158 510.691,16.9913 503.5,18C 513.742,18.6078 523.909,19.4411 534,20.5C 534.333,20.1667 534.667,19.8333 535,19.5C 536.399,20.2266 537.899,20.7266 539.5,21C 534.961,21.2529 530.461,21.7529 526,22.5C 524.234,21.4983 522.567,21.8316 521,23.5C 518.096,21.7732 514.93,21.1065 511.5,21.5C 510.5,21.5 509.5,21.5 508.5,21.5C 498.584,21.181 488.75,21.5144 479,22.5C 478.311,21.6433 477.478,20.9767 476.5,20.5C 466.924,21.4429 457.424,21.7762 448,21.5C 445.667,20.8333 443.333,20.1667 441,19.5C 438.706,21.5301 436.206,21.5301 433.5,19.5C 430.047,21.6097 426.714,21.6097 423.5,19.5C 420.682,20.7826 417.848,20.7826 415,19.5C 411.472,21.4248 408.139,21.4248 405,19.5C 404.235,19.5699 403.735,19.9033 403.5,20.5C 398.265,19.5792 393.098,19.2459 388,19.5C 387.536,20.0944 387.369,20.7611 387.5,21.5C 385.621,21.6068 385.288,21.1068 386.5,20C 385.207,19.51 383.873,19.3433 382.5,19.5C 382.167,19.5 381.833,19.5 381.5,19.5C 381.167,19.5 380.833,19.5 380.5,19.5C 379.833,19.5 379.167,19.5 378.5,19.5C 377.209,19.2627 376.209,19.596 375.5,20.5C 374.833,20.5 374.167,20.5 373.5,20.5C 372.791,19.596 371.791,19.2627 370.5,19.5C 370.167,19.5 369.833,19.5 369.5,19.5C 367.356,20.8243 364.356,21.8243 360.5,22.5C 359.289,21.7261 359.289,20.8928 360.5,20C 359.207,19.51 357.873,19.3433 356.5,19.5C 355.5,19.5 354.5,19.5 353.5,19.5C 351.784,19.6287 350.117,19.962 348.5,20.5C 346.167,19.1667 343.833,19.1667 341.5,20.5C 341.167,20.5 340.833,20.5 340.5,20.5C 339.036,19.5946 337.702,19.5946 336.5,20.5C 334.167,20.5 331.833,20.5 329.5,20.5C 327.525,20.1778 325.858,20.1778 324.5,20.5C 322.54,21.1383 320.707,21.1383 319,20.5C 318.667,21.1667 318.333,21.8333 318,22.5C 317.722,21.5842 317.222,20.9175 316.5,20.5C 316.167,20.5 315.833,20.5 315.5,20.5C 315.167,20.5 314.833,20.5 314.5,20.5C 313.167,20.5 311.833,20.5 310.5,20.5C 310.167,20.5 309.833,20.5 309.5,20.5C 308.833,20.5 308.167,20.5 307.5,20.5C 305.167,20.5 302.833,20.5 300.5,20.5C 299.167,20.5 297.833,20.5 296.5,20.5C 294.766,21.562 293.099,21.562 291.5,20.5C 289.833,20.5 288.167,20.5 286.5,20.5C 284.833,20.5 283.167,20.5 281.5,20.5C 277.5,20.5 273.5,20.5 269.5,20.5C 268.833,20.5 268.5,20.8333 268.5,21.5C 267.833,21.1667 267.167,20.8333 266.5,20.5C 265.833,20.5 265.167,20.5 264.5,20.5C 264.167,20.5 263.833,20.5 263.5,20.5C 263.167,20.5 262.833,20.5 262.5,20.5C 261.833,19.1667 261.167,19.1667 260.5,20.5C 260.167,20.5 259.833,20.5 259.5,20.5C 259.5,19.8333 259.167,19.5 258.5,19.5C 257.833,19.5 257.167,19.5 256.5,19.5C 250.5,19.5 244.5,19.5 238.5,19.5C 238.167,19.5 237.833,19.5 237.5,19.5C 232.637,19.1805 227.97,19.5139 223.5,20.5C 221.883,19.962 220.216,19.6287 218.5,19.5C 218.167,19.5 217.833,19.5 217.5,19.5C 216.508,19.3284 215.842,19.6618 215.5,20.5C 213.64,19.9285 211.973,19.9285 210.5,20.5C 208.167,19.1667 205.833,19.1667 203.5,20.5C 202.167,20.1667 200.833,19.8333 199.5,19.5C 197.5,19.8333 195.5,20.1667 193.5,20.5C 192.167,20.5 190.833,20.5 189.5,20.5C 189.167,20.5 188.833,20.5 188.5,20.5C 188.167,20.5 187.833,20.5 187.5,20.5C 186.833,20.5 186.167,20.5 185.5,20.5C 185.167,20.5 184.833,20.5 184.5,20.5C 183.833,20.5 183.167,20.5 182.5,20.5C 182.167,20.5 181.833,20.5 181.5,20.5C 181.167,20.5 180.833,20.5 180.5,20.5C 180.167,20.5 179.833,20.5 179.5,20.5C 177.358,19.5371 175.358,19.8704 173.5,21.5C 173.167,21.5 172.833,21.5 172.5,21.5C 172.5,20.8333 172.167,20.5 171.5,20.5C 171.167,20.5 170.833,20.5 170.5,20.5C 168.611,19.6201 166.611,19.6201 164.5,20.5C 164.167,20.5 163.833,20.5 163.5,20.5C 163.167,20.5 162.833,20.5 162.5,20.5C 161.833,20.5 161.167,20.5 160.5,20.5C 159.209,20.2627 158.209,20.596 157.5,21.5C 156.167,21.5 154.833,21.5 153.5,21.5C 151.052,20.5269 148.385,20.1936 145.5,20.5C 144.292,21.2341 142.959,21.5674 141.5,21.5C 140.432,20.5655 139.099,20.2322 137.5,20.5C 136.833,20.5 136.167,20.5 135.5,20.5C 135.167,20.5 134.833,20.5 134.5,20.5C 134.167,20.5 133.833,20.5 133.5,20.5C 132.833,20.5 132.5,20.8333 132.5,21.5C 130.716,20.2801 129.05,20.2801 127.5,21.5C 127.167,21.5 126.833,21.5 126.5,21.5C 126.167,20.1667 125.833,20.1667 125.5,21.5C 124.167,21.5 122.833,21.5 121.5,21.5C 119.666,20.506 117.999,20.506 116.5,21.5C 116.167,21.5 115.833,21.5 115.5,21.5C 111.85,20.2722 108.184,20.2722 104.5,21.5C 103.041,21.5674 101.708,21.2341 100.5,20.5C 99.5,20.5 98.5,20.5 97.5,20.5C 97.1667,20.5 96.8333,20.5 96.5,20.5C 95.5,20.5 94.5,20.5 93.5,20.5C 92.8333,20.5 92.1667,20.5 91.5,20.5C 90.8333,20.5 90.1667,20.5 89.5,20.5C 88.8333,20.5 88.1667,20.5 87.5,20.5C 82.3434,21.4027 77.3434,21.7361 72.5,21.5C 70.5,21.5 68.5,21.5 66.5,21.5C 65.3478,20.375 64.3478,20.375 63.5,21.5C 63.1667,21.5 62.8333,21.5 62.5,21.5C 60.8828,22.038 59.2161,22.3713 57.5,22.5C 57.631,21.7611 57.4643,21.0944 57,20.5C 55.6439,21.3802 54.1439,21.7135 52.5,21.5C 52.1667,21.5 51.8333,21.5 51.5,21.5C 51.1667,21.5 50.8333,21.5 50.5,21.5C 50.5,21.1667 50.5,20.8333 50.5,20.5C 49.1667,20.5 47.8333,20.5 46.5,20.5C 45.8333,19.1667 45.1667,19.1667 44.5,20.5C 43.5,20.5 42.5,20.5 41.5,20.5C 40.8333,19.1667 40.1667,19.1667 39.5,20.5C 38.5,20.5 37.5,20.5 36.5,20.5C 35.791,19.596 34.791,19.2627 33.5,19.5C 32.5,18.1667 31.5,18.1667 30.5,19.5C 29.8333,19.5 29.1667,19.5 28.5,19.5C 28.1667,19.5 27.8333,19.5 27.5,19.5C 26.8333,18.1667 26.1667,18.1667 25.5,19.5C 24.448,19.6495 23.448,19.4828 22.5,19C 23.7736,18.0228 23.7736,17.1894 22.5,16.5C 22.5,16.1667 22.5,15.8333 22.5,15.5C 22.5,14.8333 22.1667,14.5 21.5,14.5C 19.8333,14.5 18.1667,14.5 16.5,14.5C 12.789,14.6445 9.1223,14.6445 5.5,14.5C 4.28665,14.2528 3.61998,13.5862 3.5,12.5C 5.09903,12.7678 6.43236,12.4345 7.5,11.5C 9.35881,10.1522 11.3588,8.9855 13.5,8C 11.0341,7.07034 11.2007,6.23701 14,5.5C 14.772,5.6448 15.4387,5.97814 16,6.5C 18.9903,5.02582 22.157,4.02582 25.5,3.5C 26.086,3.70931 26.586,4.04265 27,4.5C 36.4953,2.81757 45.9953,2.1509 55.5,2.5C 56.5,3.83333 57.5,3.83333 58.5,2.5C 73.1737,1.85128 87.8404,1.18461 102.5,0.5C 102.389,1.11742 102.056,1.61742 101.5,2C 102.749,2.74012 103.749,2.57346 104.5,1.5C 118.856,1.03489 133.189,0.368222 147.5,-0.5 Z M 179.5,20.5 C 177.735,21.4614 175.735,21.7947 173.5,21.5C 175.358,19.8704 177.358,19.5371 179.5,20.5 Z M 116.5,21.5 C 117.999,20.506 119.666,20.506 121.5,21.5C 119.95,22.7199 118.284,22.7199 116.5,21.5 Z"/></g>
<g><path style="opacity:0.251" fill="#ea9737" d="M 102.5,0.5 C 103.167,0.833333 103.833,1.16667 104.5,1.5C 103.749,2.57346 102.749,2.74012 101.5,2C 102.056,1.61742 102.389,1.11742 102.5,0.5 Z"/></g>
<g><path style="opacity:0.361" fill="#de6850" d="M 58.5,2.5 C 57.5,3.83333 56.5,3.83333 55.5,2.5C 56.6522,1.37505 57.6522,1.37505 58.5,2.5 Z"/></g>
<g><path style="opacity:0.188" fill="#dd694f" d="M 7.5,11.5 C 6.43236,12.4345 5.09903,12.7678 3.5,12.5C 2.16667,12.8333 0.833333,13.1667 -0.5,13.5C -0.5,12.8333 -0.5,12.1667 -0.5,11.5C 2.13666,10.3697 4.80332,10.3697 7.5,11.5 Z"/></g>
<g><path style="opacity:0.423" fill="#de6850" d="M 16.5,14.5 C 18.1667,14.5 19.8333,14.5 21.5,14.5C 22.1667,14.5 22.5,14.8333 22.5,15.5C 22.5,15.8333 22.5,16.1667 22.5,16.5C 22.2172,17.2891 21.7172,17.9558 21,18.5C 19.1413,17.4209 17.6413,16.0876 16.5,14.5 Z"/></g>
<g><path style="opacity:0.176" fill="#de6750" d="M 25.5,19.5 C 26.1667,19.5 26.8333,19.5 27.5,19.5C 27.8333,19.5 28.1667,19.5 28.5,19.5C 27.2601,21.9845 26.2601,21.9845 25.5,19.5 Z"/></g>
<g><path style="opacity:0.314" fill="#de6850" d="M 30.5,19.5 C 31.5,19.5 32.5,19.5 33.5,19.5C 32.7399,21.9845 31.7399,21.9845 30.5,19.5 Z"/></g>
<g><path style="opacity:0.276" fill="#de6a4f" d="M 199.5,19.5 C 200.833,19.8333 202.167,20.1667 203.5,20.5C 202.486,21.7647 200.986,22.4313 199,22.5C 197.5,22.3333 196,22.1667 194.5,22C 196.744,21.9504 198.411,21.1171 199.5,19.5 Z"/></g>
<g><path style="opacity:0.32" fill="#de6950" d="M 215.5,20.5 C 215.842,19.6618 216.508,19.3284 217.5,19.5C 217.833,20.8333 218.167,20.8333 218.5,19.5C 220.216,19.6287 221.883,19.962 223.5,20.5C 224.675,20.281 225.675,20.6143 226.5,21.5C 222.57,22.9878 218.904,22.6545 215.5,20.5 Z"/></g>
<g><path style="opacity:0.34" fill="#de6850" d="M 256.5,19.5 C 257.167,19.5 257.833,19.5 258.5,19.5C 259.167,19.5 259.5,19.8333 259.5,20.5C 259.833,20.5 260.167,20.5 260.5,20.5C 261.167,20.5 261.833,20.5 262.5,20.5C 262.833,20.5 263.167,20.5 263.5,20.5C 263.5,20.8333 263.5,21.1667 263.5,21.5C 260.799,22.2294 258.133,22.5627 255.5,22.5C 255.167,22.1667 254.833,21.8333 254.5,21.5C 255.243,20.8182 255.909,20.1515 256.5,19.5 Z"/></g>
<g><path style="opacity:0.812" fill="#ea973a" d="M 341.5,20.5 C 343.833,19.1667 346.167,19.1667 348.5,20.5C 346.09,21.4385 343.756,21.4385 341.5,20.5 Z"/></g>
<g><path style="opacity:0.125" fill="#de684f" d="M 378.5,19.5 C 379.167,19.5 379.833,19.5 380.5,19.5C 379.452,21.9327 378.786,21.9327 378.5,19.5 Z"/></g>
<g><path style="opacity:0.063" fill="#df6e50" d="M 381.5,19.5 C 381.833,19.5 382.167,19.5 382.5,19.5C 382.918,20.2216 383.584,20.7216 384.5,21C 382.843,21.7252 381.843,21.2252 381.5,19.5 Z"/></g>
<g><path style="opacity:0.063" fill="#df6c50" d="M 20.5,19.5 C 21.4734,19.9867 22.4734,20.4867 23.5,21C 21.8425,21.7252 20.8425,21.2252 20.5,19.5 Z"/></g>
<g><path style="opacity:0.376" fill="#dc6950" d="M 36.5,20.5 C 37.5,20.5 38.5,20.5 39.5,20.5C 38.2233,22.914 36.5566,23.0807 34.5,21C 35.0944,20.5357 35.7611,20.369 36.5,20.5 Z"/></g>
<g><path style="opacity:0.22" fill="#dd6850" d="M 41.5,20.5 C 42.5,20.5 43.5,20.5 44.5,20.5C 45.1667,20.5 45.8333,20.5 46.5,20.5C 47.8333,20.5 49.1667,20.5 50.5,20.5C 50.5,20.8333 50.5,21.1667 50.5,21.5C 50.5,21.8333 50.5,22.1667 50.5,22.5C 48.032,21.2576 45.532,21.2576 43,22.5C 42.1667,22.1667 41.3333,21.8333 40.5,21.5C 40.6236,20.8933 40.9569,20.56 41.5,20.5 Z"/></g>
<g><path style="opacity:0.224" fill="#de6950" d="M 87.5,20.5 C 88.1667,20.5 88.8333,20.5 89.5,20.5C 90.1667,21.8333 90.8333,21.8333 91.5,20.5C 92.1667,20.5 92.8333,20.5 93.5,20.5C 93.8333,21.1667 94.1667,21.8333 94.5,22.5C 91.3783,24.4337 89.045,23.7671 87.5,20.5 Z"/></g>
<g><path style="opacity:0.226" fill="#de6950" d="M 184.5,20.5 C 184.833,20.5 185.167,20.5 185.5,20.5C 186.167,21.8333 186.833,21.8333 187.5,20.5C 187.833,20.5 188.167,20.5 188.5,20.5C 188.38,21.5862 187.713,22.2528 186.5,22.5C 185.287,22.2528 184.62,21.5862 184.5,20.5 Z"/></g>
<g><path style="opacity:0.276" fill="#dd6750" d="M 189.5,20.5 C 190.833,20.5 192.167,20.5 193.5,20.5C 192.335,23.0219 191.002,23.0219 189.5,20.5 Z"/></g>
<g><path style="opacity:0.273" fill="#de6c4f" d="M 215.5,20.5 C 215.294,22.5492 214.461,22.8825 213,21.5C 210.399,23.3864 207.565,23.3864 204.5,21.5C 206.396,20.5344 208.396,20.2011 210.5,20.5C 211.973,19.9285 213.64,19.9285 215.5,20.5 Z"/></g>
<g><path style="opacity:0.313" fill="#de6a50" d="M 237.5,19.5 C 237.833,19.5 238.167,19.5 238.5,19.5C 240.167,20.1667 241.833,20.8333 243.5,21.5C 242.448,21.3505 241.448,21.5172 240.5,22C 241.696,22.6543 241.696,23.1543 240.5,23.5C 239.522,23.0233 238.689,22.3567 238,21.5C 236.333,24.1667 234.667,24.1667 233,21.5C 231.249,22.1737 229.583,22.507 228,22.5C 227.833,22.1667 227.667,21.8333 227.5,21.5C 230.034,20.2234 232.534,20.2234 235,21.5C 235.995,20.9341 236.828,20.2674 237.5,19.5 Z"/></g>
<g><path style="opacity:0.22" fill="#de6950" d="M 243.5,21.5 C 244.858,20.3744 246.192,20.3744 247.5,21.5C 246.288,21.9302 244.955,21.9302 243.5,21.5 Z"/></g>
<g><path style="opacity:0.251" fill="#de6850" d="M 248.5,20.5 C 252.588,20.2184 253.088,20.8851 250,22.5C 248.97,22.1639 248.47,21.4972 248.5,20.5 Z"/></g>
<g><path style="opacity:0.151" fill="#e06f4d" d="M 269.5,20.5 C 273.5,20.5 277.5,20.5 281.5,20.5C 281.631,21.2389 281.464,21.9056 281,22.5C 276.845,22.6325 272.679,22.2992 268.5,21.5C 269.167,21.5 269.5,21.1667 269.5,20.5 Z"/></g>
<g><path style="opacity:0.243" fill="#de6850" d="M 286.5,20.5 C 288.167,20.5 289.833,20.5 291.5,20.5C 291.631,21.3764 291.298,22.0431 290.5,22.5C 289.5,21.1667 288.5,21.1667 287.5,22.5C 286.702,22.0431 286.369,21.3764 286.5,20.5 Z"/></g>
<g><path style="opacity:0.233" fill="#de6850" d="M 296.5,20.5 C 297.833,20.5 299.167,20.5 300.5,20.5C 300.38,21.5862 299.713,22.2528 298.5,22.5C 297.287,22.2528 296.62,21.5862 296.5,20.5 Z"/></g>
<g><path style="opacity:0.23" fill="#de6a50" d="M 307.5,20.5 C 308.167,20.5 308.833,20.5 309.5,20.5C 308.833,23.1667 308.167,23.1667 307.5,20.5 Z"/></g>
<g><path style="opacity:0.063" fill="#de6c50" d="M 310.5,20.5 C 311.833,20.5 313.167,20.5 314.5,20.5C 314.833,21.8333 315.167,21.8333 315.5,20.5C 315.833,20.5 316.167,20.5 316.5,20.5C 316.53,21.4972 316.03,22.1639 315,22.5C 313.272,22.101 311.772,21.4343 310.5,20.5 Z"/></g>
<g><path style="opacity:0.376" fill="#dd6b4f" d="M 329.5,20.5 C 329.631,21.3764 329.298,22.0431 328.5,22.5C 327.5,21.1667 326.5,21.1667 325.5,22.5C 324.702,22.0431 324.369,21.3764 324.5,20.5C 325.858,20.1778 327.525,20.1778 329.5,20.5 Z"/></g>
<g><path style="opacity:0.46" fill="#de6a4f" d="M 340.5,20.5 C 338.998,23.0219 337.665,23.0219 336.5,20.5C 337.702,19.5946 339.036,19.5946 340.5,20.5 Z"/></g>
<g><path style="opacity:0.063" fill="#de6b50" d="M 353.5,19.5 C 354.5,19.5 355.5,19.5 356.5,19.5C 357.223,21.4289 356.223,22.4289 353.5,22.5C 352.833,22.3333 352.167,22.1667 351.5,22C 352.381,21.2917 353.047,20.4584 353.5,19.5 Z"/></g>
<g><path style="opacity:0.23" fill="#dd6850" d="M 369.5,19.5 C 369.833,19.5 370.167,19.5 370.5,19.5C 371.598,22.868 370.598,23.368 367.5,21C 368.416,20.7216 369.082,20.2216 369.5,19.5 Z"/></g>
<g><path style="opacity:0.24" fill="#de6850" d="M 373.5,20.5 C 374.167,20.5 374.833,20.5 375.5,20.5C 377.028,20.5173 377.528,21.184 377,22.5C 376.259,21.3595 375.425,21.3595 374.5,22.5C 373.702,22.0431 373.369,21.3764 373.5,20.5 Z"/></g>
<g><path style="opacity:0.063" fill="#de704f" d="M 396.5,21.5 C 395.833,20.1667 395.833,20.1667 396.5,21.5 Z"/></g>
<g><path style="opacity:0.179" fill="#df6850" d="M 403.5,20.5 C 404.376,20.3691 405.043,20.7025 405.5,21.5C 403.579,22.641 401.579,22.8077 399.5,22C 401.058,21.79 402.391,21.29 403.5,20.5 Z"/></g>
<g><path style="opacity:0.063" fill="#de704f" d="M 63.5,21.5 C 64.8333,22.1667 64.8333,22.1667 63.5,21.5 Z"/></g>
<g><path style="opacity:0.267" fill="#dd6750" d="M 66.5,21.5 C 68.5,21.5 70.5,21.5 72.5,21.5C 72.189,22.4778 71.5223,23.1445 70.5,23.5C 68.9745,23.0057 67.6412,22.339 66.5,21.5 Z"/></g>
<g><path style="opacity:0.282" fill="#de6a4f" d="M 96.5,20.5 C 96.8333,20.5 97.1667,20.5 97.5,20.5C 98.5,21.8333 99.5,21.8333 100.5,20.5C 101.708,21.2341 103.041,21.5674 104.5,21.5C 105.263,22.2679 106.263,22.7679 107.5,23C 103.848,23.4986 100.182,23.6653 96.5,23.5C 96.5,22.5 96.5,21.5 96.5,20.5 Z"/></g>
<g><path style="opacity:0.364" fill="#de6950" d="M 115.5,21.5 C 115.833,21.5 116.167,21.5 116.5,21.5C 118.284,22.7199 119.95,22.7199 121.5,21.5C 122.833,21.5 124.167,21.5 125.5,21.5C 125.833,21.5 126.167,21.5 126.5,21.5C 126.833,21.5 127.167,21.5 127.5,21.5C 128.167,21.5 128.5,21.8333 128.5,22.5C 123.919,23.6068 119.252,23.7734 114.5,23C 115.056,22.6174 115.389,22.1174 115.5,21.5 Z"/></g>
<g><path style="opacity:0.361" fill="#dd6750" d="M 128.5,22.5 C 129.648,21.105 130.648,21.2716 131.5,23C 130.251,23.7401 129.251,23.5735 128.5,22.5 Z"/></g>
<g><path style="opacity:0.313" fill="#df6e4d" d="M 133.5,20.5 C 133.833,20.5 134.167,20.5 134.5,20.5C 134.833,21.8333 135.167,21.8333 135.5,20.5C 136.167,20.5 136.833,20.5 137.5,20.5C 138.905,22.4526 138.239,23.4526 135.5,23.5C 133.97,23.3601 132.97,22.6935 132.5,21.5C 133.167,21.5 133.5,21.1667 133.5,20.5 Z"/></g>
<g><path style="opacity:0.213" fill="#de6850" d="M 145.5,20.5 C 146.85,21.8235 146.683,22.8235 145,23.5C 143.171,22.534 141.338,22.3673 139.5,23C 140.044,22.2828 140.711,21.7828 141.5,21.5C 142.959,21.5674 144.292,21.2341 145.5,20.5 Z"/></g>
<g><path style="opacity:0.362" fill="#de6a50" d="M 160.5,20.5 C 161.167,20.5 161.833,20.5 162.5,20.5C 162.833,21.8333 163.167,21.8333 163.5,20.5C 163.833,20.5 164.167,20.5 164.5,20.5C 162.897,22.2944 160.73,23.2944 158,23.5C 154.892,23.0442 151.725,22.8776 148.5,23C 148.167,22.6667 147.833,22.3333 147.5,22C 149.473,21.5045 151.473,21.3379 153.5,21.5C 154.833,21.5 156.167,21.5 157.5,21.5C 158.791,21.7373 159.791,21.404 160.5,20.5 Z"/></g>
<g><path style="opacity:0.204" fill="#df6950" d="M 170.5,20.5 C 170.833,20.5 171.167,20.5 171.5,20.5C 172.167,20.5 172.5,20.8333 172.5,21.5C 170.372,22.6291 168.039,22.7958 165.5,22C 167.382,21.8019 169.048,21.3019 170.5,20.5 Z"/></g>
<g><path style="opacity:0.489" fill="#de6950" d="M 179.5,20.5 C 179.833,20.5 180.167,20.5 180.5,20.5C 180.833,21.8333 181.167,21.8333 181.5,20.5C 181.833,20.5 182.167,20.5 182.5,20.5C 181.486,21.7647 179.986,22.4313 178,22.5C 176.293,22.4915 174.793,22.1582 173.5,21.5C 175.735,21.7947 177.735,21.4614 179.5,20.5 Z"/></g>
<g><path style="opacity:0.125" fill="#dd6950" d="M 264.5,20.5 C 265.167,20.5 265.833,20.5 266.5,20.5C 265.779,22.3818 264.779,22.7152 263.5,21.5C 264.167,21.5 264.5,21.1667 264.5,20.5 Z"/></g>
<g><path style="opacity:0.063" fill="#de704f" d="M 284.5,21.5 C 285.833,22.1667 285.833,22.1667 284.5,21.5 Z"/></g>
<g><path style="opacity:0.314" fill="#de694f" d="M 301.5,21.5 C 302.833,22.1667 302.833,22.1667 301.5,21.5 Z"/></g>
<g><path style="opacity:0.125" fill="#de684f" d="M 303.5,21.5 C 304.833,22.1667 304.833,22.1667 303.5,21.5 Z"/></g>
<g><path style="opacity:0.167" fill="#df6850" d="M 346.5,22.5 C 347.601,21.4017 348.934,21.235 350.5,22C 349.207,22.49 347.873,22.6567 346.5,22.5 Z"/></g>
<g><path style="opacity:0.125" fill="#df6c50" d="M 387.5,21.5 C 388.552,21.3505 389.552,21.5172 390.5,22C 389.251,22.7401 388.251,22.5735 387.5,21.5 Z"/></g>
<g><path style="opacity:0.439" fill="#df6851" d="M 393.5,22.5 C 393.842,21.6618 394.508,21.3284 395.5,21.5C 395.158,22.3382 394.492,22.6716 393.5,22.5 Z"/></g>
<g><path style="opacity:0.125" fill="#df6a50" d="M 396.5,21.5 C 397.239,21.369 397.906,21.5357 398.5,22C 397.563,22.6917 396.897,22.525 396.5,21.5 Z"/></g>
<g><path style="opacity:0.188" fill="#dc6550" d="M 410.5,22.5 C 411.251,21.4265 412.251,21.2599 413.5,22C 412.552,22.4828 411.552,22.6495 410.5,22.5 Z"/></g>
<g><path style="opacity:0.188" fill="#df6850" d="M 456.5,22.5 C 456.897,21.475 457.563,21.3083 458.5,22C 457.906,22.4643 457.239,22.631 456.5,22.5 Z"/></g>
<g><path style="opacity:0.314" fill="#dd6b50" d="M 468.5,22.5 C 468.897,21.475 469.563,21.3083 470.5,22C 469.906,22.4643 469.239,22.631 468.5,22.5 Z"/></g>
<g><path style="opacity:0.163" fill="#de6850" d="M 508.5,21.5 C 509.5,21.5 510.5,21.5 511.5,21.5C 510.5,24.1667 509.5,24.1667 508.5,21.5 Z"/></g>
<g><path style="opacity:0.235" fill="#dd6750" d="M 51.5,21.5 C 51.8333,21.5 52.1667,21.5 52.5,21.5C 53.6576,22.9498 53.1576,23.9498 51,24.5C 50.5357,23.9056 50.369,23.2389 50.5,22.5C 51.1667,22.5 51.5,22.1667 51.5,21.5 Z"/></g>
<g><path style="opacity:0.063" fill="#df6e4e" d="M 62.5,21.5 C 62.5,22.1667 62.8333,22.5 63.5,22.5C 61.5,23.8333 59.5,23.8333 57.5,22.5C 59.2161,22.3713 60.8828,22.038 62.5,21.5 Z"/></g>
<g><path style="opacity:0.125" fill="#de684f" d="M 76.5,22.5 C 77.8333,23.1667 77.8333,23.1667 76.5,22.5 Z"/></g>
<g><path style="opacity:0.376" fill="#dd6950" d="M 79.5,22.5 C 84.5388,22.4511 84.7055,23.1177 80,24.5C 79.5357,23.9056 79.369,23.2389 79.5,22.5 Z"/></g>
<g><path style="opacity:0.125" fill="#de684f" d="M 84.5,22.5 C 85.8333,23.1667 85.8333,23.1667 84.5,22.5 Z"/></g>
<g><path style="opacity:0.251" fill="#da684f" d="M 94.5,22.5 C 95.8333,23.1667 95.8333,23.1667 94.5,22.5 Z"/></g>
<g><path style="opacity:0.063" fill="#de6c50" d="M 108.5,21.5 C 109.922,21.7086 111.255,22.2086 112.5,23C 110.537,23.8442 109.204,23.3442 108.5,21.5 Z"/></g>
<g><path style="opacity:0.251" fill="#de684f" d="M 393.5,22.5 C 392.833,23.1667 392.833,23.1667 393.5,22.5 Z"/></g>
<g><path style="opacity:0.439" fill="#dd6950" d="M 414.5,23.5 C 414.897,22.475 415.563,22.3083 416.5,23C 415.906,23.4643 415.239,23.631 414.5,23.5 Z"/></g>
</svg>
